<svg xmlns="http://www.w3.org/2000/svg" width="300.5" height="116" viewBox="0 0 300.5 116"><path fill="#6CAD2F" d="M57.49 40.39c10.635-.073 30.357-18.95 45.28-35.993a75.91 75.91 0 0 0-1.554-1.28C87.093 16.765 68.146 31.8 57.433 31.87c-11.226.076-29.34-14.443-43.485-28.712-.498.397-.99.802-1.474 1.212 14.36 17.43 33.39 36.096 45.016 36.02z"/><path fill="#CF2353" d="M40.693 57.42c-.075-10.636-18.962-30.35-36.01-45.265-.435.512-.862 1.03-1.28 1.553 13.654 14.117 28.695 33.057 28.773 43.77.08 11.228-14.433 29.347-28.695 43.498.4.497.804.988 1.216 1.474 17.422-14.368 36.08-33.406 35.998-45.03z"/><path fill="#F9CE00" d="M74.31 57.038c.043 10.636 18.87 30.408 35.872 45.374a70.26 70.26 0 0 0 1.284-1.55C97.856 86.707 82.873 67.72 82.83 57.006c-.045-11.228 14.522-29.302 28.83-43.41-.397-.497-.8-.99-1.21-1.477-17.468 14.314-36.185 33.293-36.14 44.92z"/><path fill="#0097D2" d="M57.808 73.985c-10.635.07-30.36 18.944-45.283 35.985.51.435 1.028.86 1.553 1.28 14.124-13.646 33.074-28.678 43.787-28.747 11.227-.074 29.337 14.448 43.48 28.72.498-.397.99-.803 1.475-1.213-14.36-17.432-33.386-36.1-45.012-36.025z"/><path d="M125.576 68.16c2.3 1.595 5.25 2.834 8.792 2.834 3.246 0 6.49-1.24 6.49-4.603 0-7.61-16.816-6.666-16.816-18.526 0-5.724 4.543-10.74 12.627-10.74 4.01 0 7.374.887 9.5 1.948v6.492c-3.07-1.594-6.197-2.48-9.266-2.48-2.715 0-5.31 1.063-5.31 4.19 0 7.14 16.816 6.195 16.816 18.527 0 6.904-5.9 11.15-13.866 11.15-4.543 0-8.792-1.296-11.742-3.36l2.774-5.428zm37.996-24.9h-11.33v-5.78h30.684l-1.83 5.78h-10.442v33.104h-7.08V43.26zm24.19-5.78h21.478l-1.888 5.78h-12.51v10.387h12.45v5.782h-12.45v11.15H209.3v5.782h-21.54V37.48zm29.618 0h6.432l10.208 14.69c1.356 2.007 2.36 3.482 3.245 5.017h.118a83.552 83.552 0 0 1 3.187-5.252l9.322-14.456h6.49v38.883h-7.14v-21.95c0-1.593 0-3.6.118-5.134h-.117c-.53 1.12-1.947 3.304-2.655 4.366l-7.67 11.92h-3.246l-8.497-12.216c-.826-1.18-1.89-2.536-2.655-4.01h-.118c.06 1.533.06 3.54.06 4.896v22.127h-7.08V37.48zM122.912 86.534h2.152v14.173h5.83v1.766h-7.982v-15.94zm9.623 0h8.054l-.63 1.766h-5.273v5.128h5.2v1.79h-5.2v5.49h5.998v1.765h-8.15v-15.94zm15.04-.048h1.548l6.19 15.986h-2.296l-1.572-4.184h-6.167l-1.548 4.184h-2.225l6.07-15.986zm3.192 10.037l-1.475-4.16-.896-2.66h-.048c-.17.58-.436 1.33-.92 2.685l-1.5 4.136h4.84zm5.993-9.99h3.605c1.62 0 2.71.29 3.53.775 1.428.798 2.032 2.177 2.032 3.628 0 2.2-1.21 3.58-3.192 4.184v.05c.484.265 1.09 1.136 1.936 2.562l2.83 4.74h-2.514l-2.612-4.426c-.75-1.33-1.354-2.056-1.813-2.177h-1.645v6.6h-2.152V86.535zm3.58 7.57c.847 0 1.476-.17 2.057-.507.798-.436 1.306-1.282 1.306-2.442 0-.92-.34-1.693-1.016-2.2-.483-.363-1.21-.654-2.322-.654h-1.45v5.805h1.426zm8.946-7.57h2.08l7.207 9.386a47.41 47.41 0 0 1 2.152 2.973h.05c-.05-.87-.05-1.645-.05-2.78v-9.58h2.13v15.94h-1.863l-7.474-9.748a69.157 69.157 0 0 1-2.104-2.878h-.05c.05.75.073 1.524.073 2.66v9.965h-2.152v-15.94zm16.707 0h2.152v15.94h-2.152v-15.94zm5.294 0h2.08l7.207 9.386a47.41 47.41 0 0 1 2.152 2.973h.05c-.05-.87-.05-1.645-.05-2.78v-9.58h2.13v15.94h-1.862l-7.475-9.748a70.092 70.092 0 0 1-2.106-2.878h-.05c.05.75.073 1.524.073 2.66v9.965h-2.152v-15.94zm29.383 14.947c-1.186.605-3.193 1.234-5.395 1.234-4.91 0-8.03-3.313-8.03-7.957 0-4.886 3.362-8.368 8.417-8.368 1.838 0 3.41.434 4.426.845v2.007a9.504 9.504 0 0 0-4.305-1.016c-4.04 0-6.264 2.612-6.264 6.337 0 3.87 2.295 6.312 5.947 6.312 1.258 0 2.37-.24 3.072-.58V94.88h2.13v6.6z" fill="#747678"/></svg>